<svg width="31" height="32" viewBox="0 0 31 32" fill="none" xmlns="http://www.w3.org/2000/svg">
<path d="M9.2725 20.9476H12.3558V16.3226H17.7517V20.1768L23.1475 14.7809L17.7517 9.38509V13.2393H10.8142C10.3774 13.2393 10.0115 13.3867 9.7165 13.6817C9.4205 13.9777 9.2725 14.3441 9.2725 14.7809V20.9476ZM15.4392 31.7393C15.0538 31.7393 14.6745 31.6622 14.3014 31.508C13.9294 31.3539 13.5892 31.1226 13.2808 30.8143L0.947492 18.4809C0.639158 18.1726 0.407909 17.8324 0.253742 17.4603C0.099575 17.0873 0.0224915 16.708 0.0224915 16.3226C0.0224915 15.9372 0.099575 15.5579 0.253742 15.1848C0.407909 14.8128 0.639158 14.4726 0.947492 14.1643L13.2808 1.83091C13.5892 1.52258 13.9294 1.29133 14.3014 1.13716C14.6745 0.982998 15.0538 0.905914 15.4392 0.905914C15.8246 0.905914 16.2038 0.982998 16.5769 1.13716C16.949 1.29133 17.2892 1.52258 17.5975 1.83091L29.9308 14.1643C30.2392 14.4726 30.4704 14.8128 30.6246 15.1848C30.7788 15.5579 30.8558 15.9372 30.8558 16.3226C30.8558 16.708 30.7788 17.0873 30.6246 17.4603C30.4704 17.8324 30.2392 18.1726 29.9308 18.4809L17.5975 30.8143C17.2892 31.1226 16.949 31.3539 16.5769 31.508C16.2038 31.6622 15.8246 31.7393 15.4392 31.7393Z" fill="#437FEC"/>
</svg>
