<svg width="78" height="76" viewBox="0 0 78 76" fill="none" xmlns="http://www.w3.org/2000/svg">
<rect x="0.5" width="77" height="76" rx="38" fill="url(#paint0_linear_2_10570)"/>
<path d="M42.3945 41.1894L53.7985 33.4971C55.7327 39.8369 53.4181 46.9375 47.6368 50.826C40.5555 55.6021 30.9377 53.7318 26.1604 46.6417C21.3833 39.5622 23.2646 29.9467 30.3458 25.1706C35.4929 21.7049 41.9718 21.7366 46.9498 24.7374L54.179 19.8663C46.3051 13.2728 34.7214 12.3641 25.78 18.387C14.9572 25.699 12.0931 40.3969 19.3963 51.217C26.6995 62.0476 41.3905 64.9005 52.2132 57.6097C61.7571 51.1747 65.118 39.0127 60.7741 28.795C60.1928 27.4213 59.4741 26.0794 58.6074 24.7903C57.931 23.7865 57.2018 22.8566 56.3985 22.0008L37.8815 34.4903C36.0319 35.7371 35.5458 38.2519 36.7929 40.1011C38.0401 41.9396 40.545 42.4363 42.3945 41.1894Z" fill="white"/>
<path d="M33.7266 35.6605L39.6671 44.4741C39.7411 44.5904 39.8996 44.6115 40.0053 44.5375L44.7831 41.3143C44.8994 41.2403 44.9205 41.0818 44.8465 40.9761L38.906 32.1626C38.832 32.0463 38.6734 32.0251 38.5678 32.0991L33.7899 35.3223C33.6843 35.3963 33.6525 35.5443 33.7266 35.6605Z" fill="white"/>
<path d="M31.2453 40.2457C31.4459 40.5417 31.8578 40.6262 32.1535 40.4254L35.7338 38.0047C36.0295 37.8039 36.114 37.3916 35.9133 37.0956C35.7127 36.7996 35.3008 36.715 35.005 36.9159L31.4248 39.3366C31.1291 39.5375 31.0446 39.9392 31.2453 40.2457Z" fill="white"/>
<path d="M34.6331 41.4029C34.8337 41.6989 35.2453 41.7834 35.5409 41.5826L39.1192 39.1619C39.4147 38.961 39.4991 38.5488 39.2986 38.2528C39.098 37.9568 38.6863 37.8722 38.3908 38.0731L34.8126 40.4938C34.5064 40.6946 34.4326 41.0963 34.6331 41.4029Z" fill="white"/>
<path d="M34.4686 45.0571C34.6699 45.3531 35.0831 45.4376 35.3797 45.2368L38.9712 42.8161C39.2679 42.6152 39.3526 42.203 39.1513 41.907C38.9501 41.611 38.5369 41.5264 38.2402 41.7273L34.6487 44.148C34.3415 44.3489 34.2673 44.7505 34.4686 45.0571Z" fill="white"/>
<path d="M41.2182 36.2583L38.6875 37.3464L39.1958 38.1492L36.8557 39.0999L40.5723 38.6668L40.0428 37.864L42.0864 37.6104L41.2182 36.2583Z" fill="#0245B8"/>
<defs>
<linearGradient id="paint0_linear_2_10570" x1="42.0573" y1="-1.90739e-07" x2="47.0849" y2="75.7033" gradientUnits="userSpaceOnUse">
<stop stop-color="#0C8647"/>
<stop offset="0.852249" stop-color="#11DA96"/>
<stop offset="1" stop-color="#12E8A4"/>
</linearGradient>
</defs>
</svg>
