<svg width="78" height="77" viewBox="0 0 78 77" fill="none" xmlns="http://www.w3.org/2000/svg">
<rect x="0.5" y="0.083374" width="77" height="76" rx="38" fill="#1F62D8"/>
<path d="M42.3947 41.2728L53.7988 33.5804C55.7329 39.9203 53.4183 47.0209 47.637 50.9094C40.5558 55.6854 30.9379 53.8151 26.1607 46.7251C21.3835 39.6455 23.2648 30.0301 30.346 25.254C35.4932 21.7883 41.972 21.82 46.95 24.8208L54.1793 19.9497C46.3053 13.3562 34.7217 12.4475 25.7802 18.4704C14.9575 25.7823 12.0933 40.4803 19.3965 51.3004C26.6997 62.131 41.3907 64.9839 52.2134 57.6931C61.7573 51.2581 65.1183 39.0961 60.7743 28.8784C60.1931 27.5047 59.4744 26.1627 58.6077 24.8736C57.9313 23.8699 57.202 22.94 56.3988 22.0841L37.8818 34.5737C36.0322 35.8205 35.546 38.3353 36.7932 40.1844C38.0403 42.023 40.5452 42.5196 42.3947 41.2728Z" fill="white"/>
<path d="M33.7268 35.7439L39.6673 44.5575C39.7413 44.6737 39.8998 44.6949 40.0055 44.6209L44.7833 41.3977C44.8996 41.3237 44.9207 41.1652 44.8468 41.0595L38.9062 32.2459C38.8323 32.1297 38.6737 32.1085 38.568 32.1825L33.7902 35.4057C33.6845 35.4796 33.6527 35.6276 33.7268 35.7439Z" fill="white"/>
<path d="M31.2455 40.3291C31.4461 40.6251 31.858 40.7096 32.1537 40.5088L35.734 38.088C36.0297 37.8872 36.1142 37.4749 35.9135 37.179C35.7129 36.883 35.301 36.7984 35.0052 36.9993L31.425 39.42C31.1293 39.6209 31.0448 40.0225 31.2455 40.3291Z" fill="white"/>
<path d="M34.6334 41.4862C34.834 41.7822 35.2456 41.8668 35.5412 41.666L39.1194 39.2453C39.415 39.0444 39.4994 38.6322 39.2988 38.3362C39.0983 38.0402 38.6866 37.9556 38.3911 38.1564L34.8129 40.5772C34.5067 40.778 34.4329 41.1797 34.6334 41.4862Z" fill="white"/>
<path d="M34.4689 45.1405C34.6701 45.4364 35.0833 45.521 35.38 45.3202L38.9715 42.8995C39.2681 42.6986 39.3529 42.2864 39.1516 41.9904C38.9503 41.6944 38.5371 41.6098 38.2405 41.8106L34.649 44.2314C34.3417 44.4322 34.2676 44.8339 34.4689 45.1405Z" fill="white"/>
<path d="M41.2184 36.3417L38.6877 37.4297L39.196 38.2326L36.856 39.1833L40.5725 38.7502L40.0431 37.9474L42.0867 37.6938L41.2184 36.3417Z" fill="#0245B8"/>
</svg>
